<svg xmlns="http://www.w3.org/2000/svg" viewBox="0 0 64 64">
<style type="text/css">
.st0{fill:#fff;stroke:#333;stroke-width:2.5;}
.st1{fill:none;stroke:#333;stroke-width:2.5;}
.st2{fill:#933;}
.st3{fill:#333;}
</style>
<circle class="st0" cx="32" cy="32" r="24"/>
<path class="st3" d="M38.5,28.3L7.4,59.4c-0.8,0.8-2,0.8-2.8,0l0,0c-0.8-0.8-0.8-2,0-2.8l31.1-31.1c0.8-0.8,2-0.8,2.8,0v0C39.3,26.3,39.3,27.5,38.5,28.3z"/>
<circle class="st0" cx="32" cy="32" r="12"/>
<circle class="st3" cx="32" cy="32" r="6"/>
<line class="st1" x1="8" y1="32" x2="20" y2="32"/>
<line class="st1" x1="44" y1="32" x2="56" y2="32"/>
<path class="st2" d="M56,32H44c0-0.1,0-0.3,0-0.4c0-6.6-5.4-12-12-12s-12,5.4-12,12c0,0.1,0,0.3,0,0.4H8C8,18.8,18.8,8,32,8S56,18.8,56,32z"/>
<path class="st1" d="M8,32C8,18.7,18.7,8,32,8"/>
<path class="st1" d="M56,32C56,18.7,45.3,8,32,8"/>
<path class="st1" d="M20,32c0-6.6,5.4-12,12-12"/>
<path class="st1" d="M44,32c0-6.6-5.4-12-12-12"/>
<line class="st1" x1="8" y1="32" x2="20" y2="32"/>
<line class="st1" x1="44" y1="32" x2="56" y2="32"/>
</svg>