<svg xmlns="http://www.w3.org/2000/svg" viewBox="0 0 64 64"><style type="text/css">.st0,.st1{fill:#fff;stroke:#333;stroke-width:2.5}.st1{fill:none}.st2{fill:#933}</style><circle cx="32" cy="32" r="24" class="st0"/><path d="M38.5,28.3L7.4,59.4c-0.8,0.8-2,0.8-2.8,0l0,0c-0.8-0.8-0.8-2,0-2.8l31.1-31.1c0.8-0.8,2-0.8,2.8,0v0C39.3,26.3,39.3,27.5,38.5,28.3z" class="st0"/><circle cx="32" cy="32" r="12" class="st0"/><circle cx="32" cy="32" r="6" class="st0"/><line x1="8" x2="20" y1="32" y2="32" class="st1"/><line x1="44" x2="56" y1="32" y2="32" class="st1"/><path d="M56,32H44c0-0.1,0-0.3,0-0.4c0-6.6-5.4-12-12-12s-12,5.4-12,12c0,0.1,0,0.3,0,0.4H8C8,18.8,18.8,8,32,8S56,18.8,56,32z" class="st2"/><path d="M8,32C8,18.7,18.7,8,32,8" class="st1"/><path d="M56,32C56,18.7,45.3,8,32,8" class="st1"/><path d="M20,32c0-6.6,5.4-12,12-12" class="st1"/><path d="M44,32c0-6.6-5.4-12-12-12" class="st1"/><line x1="8" x2="20" y1="32" y2="32" class="st1"/><line x1="44" x2="56" y1="32" y2="32" class="st1"/></svg>